<svg width="320" height="302" viewBox="0 0 320 302" fill="none" xmlns="http://www.w3.org/2000/svg">
<path d="M182 222C182 265.907 146.407 301.5 102.5 301.5C58.5934 301.5 23 265.907 23 222C23 178.093 58.5934 142.5 102.5 142.5C78 247 182 178.093 182 222Z" fill="white"/>
<path d="M22.863 142.005C13.791 99.0455 43.8253 25.4983 86.7844 16.4263C129.744 7.35432 171.923 34.8253 180.995 77.7845C190.067 120.744 164.459 152.928 121.5 162C123.88 54.6928 31.935 184.964 22.863 142.005Z" fill="white"/>
<path d="M145.276 180.534C157.003 138.222 200.809 113.428 243.121 125.155C285.433 136.882 310.227 180.688 298.5 223C286.773 265.312 222.312 271.227 180 259.5C231.52 165.34 133.549 222.846 145.276 180.534Z" fill="white"/>
</svg>
