<svg width="90" height="94" viewBox="0 0 90 94" fill="none" xmlns="http://www.w3.org/2000/svg">
<g id="Group 3">
<rect id="Rectangle 4" x="90" y="3" width="90" height="90" rx="45" transform="rotate(90 90 3)" fill="white"/>
<rect id="Rectangle 6" x="29" y="6" width="85" height="5" transform="rotate(90 29 6)" fill="#EDF1D6"/>
<rect id="Rectangle 7" x="38" y="40" width="54" height="5" transform="rotate(90 38 40)" fill="#EDF1D6"/>
<rect id="Rectangle 7_2" x="45" width="57" height="5" transform="rotate(90 45 0)" fill="#EDF1D6"/>
<rect id="Rectangle 8" x="54" y="51" width="43" height="5" transform="rotate(90 54 51)" fill="#EDF1D6"/>
<rect id="Rectangle 9" x="67" y="3" width="36" height="5" transform="rotate(90 67 3)" fill="#EDF1D6"/>
<rect id="Rectangle 10" x="76" y="66" width="18" height="5" transform="rotate(90 76 66)" fill="#EDF1D6"/>
<g id="PORTAL">
<path d="M8.494 52V39.4H13.948C15.076 39.4 16.048 39.586 16.864 39.958C17.68 40.318 18.31 40.84 18.754 41.524C19.198 42.208 19.42 43.024 19.42 43.972C19.42 44.908 19.198 45.718 18.754 46.402C18.31 47.086 17.68 47.614 16.864 47.986C16.048 48.346 15.076 48.526 13.948 48.526H10.114L11.41 47.212V52H8.494ZM11.41 47.536L10.114 46.15H13.786C14.686 46.15 15.358 45.958 15.802 45.574C16.246 45.19 16.468 44.656 16.468 43.972C16.468 43.276 16.246 42.736 15.802 42.352C15.358 41.968 14.686 41.776 13.786 41.776H10.114L11.41 40.39V47.536ZM27.7976 52.216C26.8016 52.216 25.8776 52.054 25.0256 51.73C24.1856 51.406 23.4536 50.95 22.8296 50.362C22.2176 49.774 21.7376 49.084 21.3896 48.292C21.0536 47.5 20.8856 46.636 20.8856 45.7C20.8856 44.764 21.0536 43.9 21.3896 43.108C21.7376 42.316 22.2236 41.626 22.8476 41.038C23.4716 40.45 24.2036 39.994 25.0436 39.67C25.8836 39.346 26.7956 39.184 27.7796 39.184C28.7756 39.184 29.6876 39.346 30.5156 39.67C31.3556 39.994 32.0816 40.45 32.6936 41.038C33.3176 41.626 33.8036 42.316 34.1516 43.108C34.4996 43.888 34.6736 44.752 34.6736 45.7C34.6736 46.636 34.4996 47.506 34.1516 48.31C33.8036 49.102 33.3176 49.792 32.6936 50.38C32.0816 50.956 31.3556 51.406 30.5156 51.73C29.6876 52.054 28.7816 52.216 27.7976 52.216ZM27.7796 49.732C28.3436 49.732 28.8596 49.636 29.3276 49.444C29.8076 49.252 30.2276 48.976 30.5876 48.616C30.9476 48.256 31.2236 47.83 31.4156 47.338C31.6196 46.846 31.7216 46.3 31.7216 45.7C31.7216 45.1 31.6196 44.554 31.4156 44.062C31.2236 43.57 30.9476 43.144 30.5876 42.784C30.2396 42.424 29.8256 42.148 29.3456 41.956C28.8656 41.764 28.3436 41.668 27.7796 41.668C27.2156 41.668 26.6936 41.764 26.2136 41.956C25.7456 42.148 25.3316 42.424 24.9716 42.784C24.6116 43.144 24.3296 43.57 24.1256 44.062C23.9336 44.554 23.8376 45.1 23.8376 45.7C23.8376 46.288 23.9336 46.834 24.1256 47.338C24.3296 47.83 24.6056 48.256 24.9536 48.616C25.3136 48.976 25.7336 49.252 26.2136 49.444C26.6936 49.636 27.2156 49.732 27.7796 49.732ZM36.8651 52V39.4H42.3191C43.4471 39.4 44.4191 39.586 45.2351 39.958C46.0511 40.318 46.6811 40.84 47.1251 41.524C47.5691 42.208 47.7911 43.024 47.7911 43.972C47.7911 44.908 47.5691 45.718 47.1251 46.402C46.6811 47.074 46.0511 47.59 45.2351 47.95C44.4191 48.31 43.4471 48.49 42.3191 48.49H38.4851L39.7811 47.212V52H36.8651ZM44.8751 52L41.7251 47.428H44.8391L48.0251 52H44.8751ZM39.7811 47.536L38.4851 46.168H42.1571C43.0571 46.168 43.7291 45.976 44.1731 45.592C44.6171 45.196 44.8391 44.656 44.8391 43.972C44.8391 43.276 44.6171 42.736 44.1731 42.352C43.7291 41.968 43.0571 41.776 42.1571 41.776H38.4851L39.7811 40.39V47.536ZM52.5356 52V41.776H48.5036V39.4H59.4836V41.776H55.4516V52H52.5356ZM58.7638 52L64.3798 39.4H67.2598L72.8938 52H69.8338L65.2258 40.876H66.3778L61.7518 52H58.7638ZM61.5718 49.3L62.3458 47.086H68.8258L69.6178 49.3H61.5718ZM74.201 52V39.4H77.117V49.624H83.435V52H74.201Z" fill="black"/>
<path d="M8.494 52H6.494V54H8.494V52ZM8.494 39.4V37.4H6.494V39.4H8.494ZM16.864 39.958L16.0344 41.7778L16.0455 41.7829L16.0567 41.7878L16.864 39.958ZM18.754 41.524L17.0764 42.6129L17.0764 42.6129L18.754 41.524ZM16.864 47.986L17.6713 49.8158L17.6825 49.8109L17.6936 49.8058L16.864 47.986ZM10.114 48.526L8.69007 47.1216L5.33228 50.526H10.114V48.526ZM11.41 47.212H13.41V42.3361L9.98607 45.8076L11.41 47.212ZM11.41 52V54H13.41V52H11.41ZM11.41 47.536L9.94915 48.902L13.41 52.6032V47.536H11.41ZM10.114 46.15V44.15H5.50574L8.65315 47.516L10.114 46.15ZM10.114 41.776L8.65315 40.41L5.50574 43.776H10.114V41.776ZM11.41 40.39H13.41V35.3228L9.94915 39.024L11.41 40.39ZM10.494 52V39.4H6.494V52H10.494ZM8.494 41.4H13.948V37.4H8.494V41.4ZM13.948 41.4C14.8613 41.4 15.5369 41.551 16.0344 41.7778L17.6936 38.1382C16.5591 37.621 15.2907 37.4 13.948 37.4V41.4ZM16.0567 41.7878C16.5515 42.0061 16.8641 42.2857 17.0764 42.6129L20.4316 40.4351C19.7559 39.3942 18.8085 38.6299 17.6713 38.1282L16.0567 41.7878ZM17.0764 42.6129C17.2776 42.9228 17.42 43.3463 17.42 43.972H21.42C21.42 42.7017 21.1184 41.4932 20.4316 40.4351L17.0764 42.6129ZM17.42 43.972C17.42 44.5801 17.2802 44.9991 17.0764 45.3131L20.4316 47.4909C21.1158 46.4369 21.42 45.2359 21.42 43.972H17.42ZM17.0764 45.3131C16.8602 45.6462 16.5397 45.9358 16.0344 46.1662L17.6936 49.8058C18.8203 49.2922 19.7598 48.5258 20.4316 47.4909L17.0764 45.3131ZM16.0567 46.1562C15.5529 46.3784 14.8691 46.526 13.948 46.526V50.526C15.2829 50.526 16.5431 50.3136 17.6713 49.8158L16.0567 46.1562ZM13.948 46.526H10.114V50.526H13.948V46.526ZM11.5379 49.9304L12.8339 48.6164L9.98607 45.8076L8.69007 47.1216L11.5379 49.9304ZM9.41 47.212V52H13.41V47.212H9.41ZM11.41 50H8.494V54H11.41V50ZM12.8708 46.17L11.5748 44.784L8.65315 47.516L9.94915 48.902L12.8708 46.17ZM10.114 48.15H13.786V44.15H10.114V48.15ZM13.786 48.15C14.9207 48.15 16.1524 47.9152 17.1103 47.0867L14.4937 44.0613C14.5297 44.0301 14.5244 44.0519 14.4156 44.083C14.301 44.1157 14.1006 44.15 13.786 44.15V48.15ZM17.1103 47.0867C18.0679 46.2585 18.468 45.1306 18.468 43.972H14.468C14.468 44.0978 14.4479 44.1343 14.4547 44.1177C14.4579 44.1101 14.4644 44.0974 14.4745 44.0834C14.4846 44.0696 14.4926 44.0622 14.4937 44.0613L17.1103 47.0867ZM18.468 43.972C18.468 42.8139 18.076 41.6745 17.1103 40.8393L14.4937 43.8647C14.4906 43.8621 14.4814 43.8533 14.4709 43.8387C14.4604 43.8241 14.4542 43.8116 14.4517 43.8055C14.4464 43.7926 14.468 43.8358 14.468 43.972H18.468ZM17.1103 40.8393C16.1524 40.0108 14.9207 39.776 13.786 39.776V43.776C14.1006 43.776 14.301 43.8103 14.4156 43.843C14.5244 43.8741 14.5297 43.8959 14.4937 43.8647L17.1103 40.8393ZM13.786 39.776H10.114V43.776H13.786V39.776ZM11.5748 43.142L12.8708 41.756L9.94915 39.024L8.65315 40.41L11.5748 43.142ZM9.41 40.39V47.536H13.41V40.39H9.41ZM25.0256 51.73L24.3058 53.596L24.3147 53.5994L25.0256 51.73ZM22.8296 50.362L21.4439 51.8042L21.4509 51.8109L21.458 51.8176L22.8296 50.362ZM21.3896 48.292L19.5484 49.0731L19.5534 49.0849L19.5586 49.0965L21.3896 48.292ZM21.3896 43.108L19.5586 42.3035L19.5534 42.3151L19.5484 42.3269L21.3896 43.108ZM25.0436 39.67L24.3239 37.804L24.3238 37.804L25.0436 39.67ZM30.5156 39.67L29.7868 41.5325L29.7958 41.536L30.5156 39.67ZM32.6936 41.038L31.3079 42.4802L31.3149 42.4869L31.322 42.4936L32.6936 41.038ZM34.1516 43.108L32.3205 43.9126L32.3251 43.9229L34.1516 43.108ZM34.1516 48.31L35.9827 49.1146L35.987 49.1044L34.1516 48.31ZM32.6936 50.38L34.0643 51.8364L34.0652 51.8356L32.6936 50.38ZM30.5156 51.73L29.7958 49.864L29.7868 49.8675L30.5156 51.73ZM29.3276 49.444L28.5848 47.587L28.5766 47.5903L28.5685 47.5937L29.3276 49.444ZM30.5876 48.616L29.1734 47.2018L29.1734 47.2018L30.5876 48.616ZM31.4156 47.338L29.5681 46.572L29.5601 46.5914L29.5524 46.6109L31.4156 47.338ZM31.4156 44.062L29.5524 44.7891L29.5601 44.8086L29.5681 44.828L31.4156 44.062ZM30.5876 42.784L29.1496 44.174L29.1614 44.1862L29.1734 44.1982L30.5876 42.784ZM29.3456 41.956L28.6028 43.813L28.6028 43.813L29.3456 41.956ZM26.2136 41.956L25.4708 40.099L25.4626 40.1023L25.4545 40.1057L26.2136 41.956ZM24.9716 42.784L26.3858 44.1982L26.3858 44.1982L24.9716 42.784ZM24.1256 44.062L22.2781 43.296L22.2701 43.3154L22.2624 43.3349L24.1256 44.062ZM24.1256 47.338L22.2566 48.05L22.267 48.0772L22.2781 48.104L24.1256 47.338ZM24.9536 48.616L23.5156 50.006L23.5274 50.0182L23.5394 50.0302L24.9536 48.616ZM26.2136 49.444L25.4708 51.301L25.4708 51.301L26.2136 49.444ZM27.7976 50.216C27.022 50.216 26.3413 50.0906 25.7365 49.8606L24.3147 53.5994C25.4139 54.0174 26.5812 54.216 27.7976 54.216V50.216ZM25.7453 49.864C25.1349 49.6285 24.6272 49.3078 24.2012 48.9064L21.458 51.8176C22.28 52.5922 23.2363 53.1835 24.3059 53.596L25.7453 49.864ZM24.2152 48.9198C23.7957 48.5167 23.4654 48.0445 23.2206 47.4875L19.5586 49.0965C20.0098 50.1235 20.6395 51.0313 21.4439 51.8042L24.2152 48.9198ZM23.2308 47.5109C23.0085 46.987 22.8856 46.3914 22.8856 45.7H18.8856C18.8856 46.8806 19.0987 48.013 19.5484 49.0731L23.2308 47.5109ZM22.8856 45.7C22.8856 45.0086 23.0085 44.413 23.2308 43.8891L19.5484 42.3269C19.0987 43.387 18.8856 44.5194 18.8856 45.7H22.8856ZM23.2206 43.9125C23.4617 43.3639 23.7923 42.8959 24.2192 42.4936L21.476 39.5824C20.6549 40.3561 20.0135 41.2681 19.5586 42.3035L23.2206 43.9125ZM24.2192 42.4936C24.6452 42.0922 25.1529 41.7715 25.7633 41.536L24.3238 37.804C23.2543 38.2165 22.298 38.8078 21.476 39.5824L24.2192 42.4936ZM25.7633 41.536C26.3533 41.3085 27.0188 41.184 27.7796 41.184V37.184C26.5724 37.184 25.4139 37.3835 24.3239 37.804L25.7633 41.536ZM27.7796 41.184C28.5561 41.184 29.2173 41.3096 29.7868 41.5325L31.2444 37.8075C30.1579 37.3824 28.9951 37.184 27.7796 37.184V41.184ZM29.7958 41.536C30.4032 41.7703 30.899 42.0873 31.3079 42.4802L34.0792 39.5958C33.2642 38.8127 32.308 38.2177 31.2353 37.804L29.7958 41.536ZM31.322 42.4936C31.7489 42.8959 32.0795 43.3639 32.3206 43.9125L35.9826 42.3035C35.5277 41.2681 34.8863 40.3561 34.0652 39.5824L31.322 42.4936ZM32.3251 43.9229C32.5467 44.4195 32.6736 45.0018 32.6736 45.7H36.6736C36.6736 44.5022 36.4525 43.3565 35.9781 42.2931L32.3251 43.9229ZM32.6736 45.7C32.6736 46.3817 32.5483 46.9792 32.3162 47.5156L35.987 49.1044C36.4509 48.0328 36.6736 46.8903 36.6736 45.7H32.6736ZM32.3206 47.5055C32.0795 48.0541 31.7489 48.5221 31.322 48.9244L34.0652 51.8356C34.8863 51.0619 35.5277 50.1499 35.9826 49.1145L32.3206 47.5055ZM31.3229 48.9236C30.9124 49.3099 30.4118 49.6264 29.7959 49.864L31.2353 53.596C32.2994 53.1856 33.2508 52.6021 34.0643 51.8364L31.3229 48.9236ZM29.7868 49.8675C29.2146 50.0914 28.5588 50.216 27.7976 50.216V54.216C29.0044 54.216 30.1606 54.0166 31.2444 53.5925L29.7868 49.8675ZM27.7796 51.732C28.574 51.732 29.3516 51.5959 30.0867 51.2943L28.5685 47.5937C28.3676 47.6761 28.1131 47.732 27.7796 47.732V51.732ZM30.0704 51.301C30.7979 51.01 31.4473 50.5848 32.0018 50.0302L29.1734 47.2018C29.0079 47.3672 28.8173 47.494 28.5848 47.587L30.0704 51.301ZM32.0018 50.0302C32.5647 49.4673 32.9901 48.8049 33.2787 48.0651L29.5524 46.6109C29.4571 46.8551 29.3305 47.0447 29.1734 47.2018L32.0018 50.0302ZM33.2631 48.104C33.5797 47.3403 33.7216 46.5297 33.7216 45.7H29.7216C29.7216 46.0703 29.6595 46.3517 29.5681 46.572L33.2631 48.104ZM33.7216 45.7C33.7216 44.8703 33.5797 44.0597 33.2631 43.296L29.5681 44.828C29.6595 45.0483 29.7216 45.3297 29.7216 45.7H33.7216ZM33.2787 43.3349C32.9901 42.5951 32.5647 41.9327 32.0018 41.3698L29.1734 44.1982C29.3305 44.3553 29.4571 44.5449 29.5524 44.7891L33.2787 43.3349ZM32.0256 41.394C31.4749 40.8243 30.8217 40.3924 30.0884 40.099L28.6028 43.813C28.8295 43.9036 29.0042 44.0237 29.1496 44.174L32.0256 41.394ZM30.0884 40.099C29.3515 39.8043 28.5748 39.668 27.7796 39.668V43.668C28.1124 43.668 28.3797 43.7237 28.6028 43.813L30.0884 40.099ZM27.7796 39.668C26.9844 39.668 26.2077 39.8043 25.4708 40.099L26.9564 43.813C27.1795 43.7237 27.4468 43.668 27.7796 43.668V39.668ZM25.4545 40.1057C24.7398 40.3989 24.1035 40.8237 23.5574 41.3698L26.3858 44.1982C26.5597 44.0243 26.7514 43.8971 26.9727 43.8063L25.4545 40.1057ZM23.5574 41.3698C23.0033 41.9239 22.5779 42.573 22.2781 43.296L25.9731 44.828C26.0813 44.567 26.2199 44.3641 26.3858 44.1982L23.5574 41.3698ZM22.2624 43.3349C21.9686 44.088 21.8376 44.8848 21.8376 45.7H25.8376C25.8376 45.3152 25.8986 45.02 25.9887 44.7891L22.2624 43.3349ZM21.8376 45.7C21.8376 46.5093 21.9705 47.2989 22.2566 48.05L25.9946 46.626C25.8967 46.3691 25.8376 46.0667 25.8376 45.7H21.8376ZM22.2781 48.104C22.5721 48.813 22.9823 49.4543 23.5156 50.006L26.3916 47.226C26.2289 47.0577 26.0871 46.847 25.9731 46.572L22.2781 48.104ZM23.5394 50.0302C24.0939 50.5848 24.7433 51.01 25.4708 51.301L26.9564 47.587C26.7239 47.494 26.5333 47.3672 26.3678 47.2018L23.5394 50.0302ZM25.4708 51.301C26.2077 51.5957 26.9844 51.732 27.7796 51.732V47.732C27.4468 47.732 27.1795 47.6763 26.9564 47.587L25.4708 51.301ZM36.8651 52H34.8651V54H36.8651V52ZM36.8651 39.4V37.4H34.8651V39.4H36.8651ZM45.2351 39.958L44.4055 41.7778L44.4166 41.7829L44.4278 41.7878L45.2351 39.958ZM47.1251 41.524L45.4475 42.6129L45.4475 42.6129L47.1251 41.524ZM47.1251 46.402L48.7938 47.5045L48.7982 47.4977L48.8027 47.4909L47.1251 46.402ZM45.2351 47.95L46.0424 49.7798L46.0424 49.7798L45.2351 47.95ZM38.4851 48.49L37.0808 47.0659L33.6085 50.49H38.4851V48.49ZM39.7811 47.212H41.7811V42.4309L38.3768 45.7879L39.7811 47.212ZM39.7811 52V54H41.7811V52H39.7811ZM44.8751 52L43.2281 53.1347L43.8243 54H44.8751V52ZM41.7251 47.428V45.428H37.9184L40.0781 48.5627L41.7251 47.428ZM44.8391 47.428L46.48 46.2845L45.8831 45.428H44.8391V47.428ZM48.0251 52V54H51.8565L49.666 50.8565L48.0251 52ZM39.7811 47.536L38.3292 48.9115L41.7811 52.5552V47.536H39.7811ZM38.4851 46.168V44.168H33.8354L37.0332 47.5435L38.4851 46.168ZM44.1731 45.592L45.4814 47.1047L45.4929 47.0947L45.5043 47.0846L44.1731 45.592ZM38.4851 41.776L37.0242 40.41L33.8768 43.776H38.4851V41.776ZM39.7811 40.39H41.7811V35.3228L38.3202 39.024L39.7811 40.39ZM38.8651 52V39.4H34.8651V52H38.8651ZM36.8651 41.4H42.3191V37.4H36.8651V41.4ZM42.3191 41.4C43.2324 41.4 43.908 41.551 44.4055 41.7778L46.0647 38.1382C44.9302 37.621 43.6618 37.4 42.3191 37.4V41.4ZM44.4278 41.7878C44.9226 42.0061 45.2351 42.2857 45.4475 42.6129L48.8027 40.4351C48.127 39.3942 47.1796 38.6299 46.0424 38.1282L44.4278 41.7878ZM45.4475 42.6129C45.6487 42.9228 45.7911 43.3463 45.7911 43.972H49.7911C49.7911 42.7017 49.4895 41.4932 48.8027 40.4351L45.4475 42.6129ZM45.7911 43.972C45.7911 44.5801 45.6513 44.9991 45.4475 45.3131L48.8027 47.4909C49.4869 46.4369 49.7911 45.2359 49.7911 43.972H45.7911ZM45.4564 45.2995C45.2462 45.6177 44.9319 45.8978 44.4278 46.1202L46.0424 49.7798C47.1703 49.2822 48.116 48.5303 48.7938 47.5045L45.4564 45.2995ZM44.4278 46.1202C43.924 46.3424 43.2402 46.49 42.3191 46.49V50.49C43.654 50.49 44.9142 50.2776 46.0424 49.7798L44.4278 46.1202ZM42.3191 46.49H38.4851V50.49H42.3191V46.49ZM39.8894 49.9141L41.1854 48.6361L38.3768 45.7879L37.0808 47.0659L39.8894 49.9141ZM37.7811 47.212V52H41.7811V47.212H37.7811ZM39.7811 50H36.8651V54H39.7811V50ZM46.522 50.8653L43.372 46.2933L40.0781 48.5627L43.2281 53.1347L46.522 50.8653ZM41.7251 49.428H44.8391V45.428H41.7251V49.428ZM43.1982 48.5715L46.3842 53.1435L49.666 50.8565L46.48 46.2845L43.1982 48.5715ZM48.0251 50H44.8751V54H48.0251V50ZM41.233 46.1605L39.937 44.7925L37.0332 47.5435L38.3292 48.9115L41.233 46.1605ZM38.4851 48.168H42.1571V44.168H38.4851V48.168ZM42.1571 48.168C43.2918 48.168 44.5235 47.9332 45.4814 47.1047L42.8648 44.0793C42.9008 44.0481 42.8955 44.0699 42.7867 44.101C42.6721 44.1337 42.4717 44.168 42.1571 44.168V48.168ZM45.5043 47.0846C46.4394 46.2506 46.8391 45.1318 46.8391 43.972H42.8391C42.8391 44.0972 42.8191 44.1385 42.8228 44.1295C42.8243 44.1259 42.8283 44.1177 42.8349 44.1085C42.8414 44.0994 42.8453 44.0964 42.8419 44.0994L45.5043 47.0846ZM46.8391 43.972C46.8391 42.8139 46.4471 41.6745 45.4814 40.8393L42.8648 43.8647C42.8617 43.8621 42.8525 43.8533 42.842 43.8387C42.8315 43.8241 42.8253 43.8116 42.8228 43.8055C42.8175 43.7926 42.8391 43.8358 42.8391 43.972H46.8391ZM45.4814 40.8393C44.5235 40.0108 43.2918 39.776 42.1571 39.776V43.776C42.4717 43.776 42.6721 43.8103 42.7867 43.843C42.8955 43.8741 42.9008 43.8959 42.8648 43.8647L45.4814 40.8393ZM42.1571 39.776H38.4851V43.776H42.1571V39.776ZM39.9459 43.142L41.2419 41.756L38.3202 39.024L37.0242 40.41L39.9459 43.142ZM37.7811 40.39V47.536H41.7811V40.39H37.7811ZM52.5356 52H50.5356V54H52.5356V52ZM52.5356 41.776H54.5356V39.776H52.5356V41.776ZM48.5036 41.776H46.5036V43.776H48.5036V41.776ZM48.5036 39.4V37.4H46.5036V39.4H48.5036ZM59.4836 39.4H61.4836V37.4H59.4836V39.4ZM59.4836 41.776V43.776H61.4836V41.776H59.4836ZM55.4516 41.776V39.776H53.4516V41.776H55.4516ZM55.4516 52V54H57.4516V52H55.4516ZM54.5356 52V41.776H50.5356V52H54.5356ZM52.5356 39.776H48.5036V43.776H52.5356V39.776ZM50.5036 41.776V39.4H46.5036V41.776H50.5036ZM48.5036 41.4H59.4836V37.4H48.5036V41.4ZM57.4836 39.4V41.776H61.4836V39.4H57.4836ZM59.4836 39.776H55.4516V43.776H59.4836V39.776ZM53.4516 41.776V52H57.4516V41.776H53.4516ZM55.4516 50H52.5356V54H55.4516V50ZM58.7638 52L56.937 51.1858L55.6827 54H58.7638V52ZM64.3798 39.4V37.4H63.0815L62.553 38.5858L64.3798 39.4ZM67.2598 39.4L69.0856 38.5836L68.5563 37.4H67.2598V39.4ZM72.8938 52V54H75.9789L74.7196 51.1836L72.8938 52ZM69.8338 52L67.986 52.7654L68.4975 54H69.8338V52ZM65.2258 40.876V38.876H62.2325L63.378 41.6414L65.2258 40.876ZM66.3778 40.876L68.2245 41.644L69.3755 38.876H66.3778V40.876ZM61.7518 52V54H63.0861L63.5985 52.768L61.7518 52ZM61.5718 49.3L59.6838 48.64L58.7539 51.3H61.5718V49.3ZM62.3458 47.086V45.086H60.9263L60.4578 46.426L62.3458 47.086ZM68.8258 47.086L70.7089 46.4124L70.2344 45.086H68.8258V47.086ZM69.6178 49.3V51.3H72.4573L71.5009 48.6264L69.6178 49.3ZM60.5905 52.8142L66.2065 40.2142L62.553 38.5858L56.937 51.1858L60.5905 52.8142ZM64.3798 41.4H67.2598V37.4H64.3798V41.4ZM65.434 40.2164L71.068 52.8164L74.7196 51.1836L69.0856 38.5836L65.434 40.2164ZM72.8938 50H69.8338V54H72.8938V50ZM71.6815 51.2346L67.0735 40.1106L63.378 41.6414L67.986 52.7654L71.6815 51.2346ZM65.2258 42.876H66.3778V38.876H65.2258V42.876ZM64.5311 40.108L59.9051 51.232L63.5985 52.768L68.2245 41.644L64.5311 40.108ZM61.7518 50H58.7638V54H61.7518V50ZM63.4597 49.96L64.2337 47.746L60.4578 46.426L59.6838 48.64L63.4597 49.96ZM62.3458 49.086H68.8258V45.086H62.3458V49.086ZM66.9426 47.7596L67.7346 49.9736L71.5009 48.6264L70.7089 46.4124L66.9426 47.7596ZM69.6178 47.3H61.5718V51.3H69.6178V47.3ZM74.201 52H72.201V54H74.201V52ZM74.201 39.4V37.4H72.201V39.4H74.201ZM77.117 39.4H79.117V37.4H77.117V39.4ZM77.117 49.624H75.117V51.624H77.117V49.624ZM83.435 49.624H85.435V47.624H83.435V49.624ZM83.435 52V54H85.435V52H83.435ZM76.201 52V39.4H72.201V52H76.201ZM74.201 41.4H77.117V37.4H74.201V41.4ZM75.117 39.4V49.624H79.117V39.4H75.117ZM77.117 51.624H83.435V47.624H77.117V51.624ZM81.435 49.624V52H85.435V49.624H81.435ZM83.435 50H74.201V54H83.435V50Z" fill="#EDF1D6" fill-opacity="0.75"/>
</g>
</g>
</svg>
