<svg width="241" height="190" viewBox="0 0 241 190" fill="none" xmlns="http://www.w3.org/2000/svg">
<rect x="45" y="100" width="90" height="90" fill="white"/>
<rect width="90" height="90" fill="white"/>
<rect x="146" y="70" width="90" height="90" fill="white"/>
<path d="M49.634 87.216C48.626 87.216 47.66 87.084 46.736 86.82C45.812 86.544 45.068 86.19 44.504 85.758L45.494 83.562C46.034 83.946 46.67 84.264 47.402 84.516C48.146 84.756 48.896 84.876 49.652 84.876C50.228 84.876 50.69 84.822 51.038 84.714C51.398 84.594 51.662 84.432 51.83 84.228C51.998 84.024 52.082 83.79 52.082 83.526C52.082 83.19 51.95 82.926 51.686 82.734C51.422 82.53 51.074 82.368 50.642 82.248C50.21 82.116 49.73 81.996 49.202 81.888C48.686 81.768 48.164 81.624 47.636 81.456C47.12 81.288 46.646 81.072 46.214 80.808C45.782 80.544 45.428 80.196 45.152 79.764C44.888 79.332 44.756 78.78 44.756 78.108C44.756 77.388 44.948 76.734 45.332 76.146C45.728 75.546 46.316 75.072 47.096 74.724C47.888 74.364 48.878 74.184 50.066 74.184C50.858 74.184 51.638 74.28 52.406 74.472C53.174 74.652 53.852 74.928 54.44 75.3L53.54 77.514C52.952 77.178 52.364 76.932 51.776 76.776C51.188 76.608 50.612 76.524 50.048 76.524C49.484 76.524 49.022 76.59 48.662 76.722C48.302 76.854 48.044 77.028 47.888 77.244C47.732 77.448 47.654 77.688 47.654 77.964C47.654 78.288 47.786 78.552 48.05 78.756C48.314 78.948 48.662 79.104 49.094 79.224C49.526 79.344 50 79.464 50.516 79.584C51.044 79.704 51.566 79.842 52.082 79.998C52.61 80.154 53.09 80.364 53.522 80.628C53.954 80.892 54.302 81.24 54.566 81.672C54.842 82.104 54.98 82.65 54.98 83.31C54.98 84.018 54.782 84.666 54.386 85.254C53.99 85.842 53.396 86.316 52.604 86.676C51.824 87.036 50.834 87.216 49.634 87.216ZM55.3165 87L60.9325 74.4H63.8125L69.4465 87H66.3865L61.7785 75.876H62.9305L58.3045 87H55.3165ZM58.1245 84.3L58.8985 82.086H65.3785L66.1705 84.3H58.1245ZM73.8482 87L68.4122 74.4H71.5622L76.3142 85.56H74.4602L79.2842 74.4H82.1822L76.7282 87H73.8482ZM85.9162 79.476H91.9822V81.744H85.9162V79.476ZM86.1322 84.66H92.9902V87H83.2342V74.4H92.7562V76.74H86.1322V84.66ZM103.018 87V76.776H98.9861V74.4H109.966V76.776H105.934V87H103.018ZM120.175 74.4H123.091V87H120.175V74.4ZM114.451 87H111.535V74.4H114.451V87ZM120.391 81.834H114.235V79.368H120.391V81.834ZM128.754 79.476H134.82V81.744H128.754V79.476ZM128.97 84.66H135.828V87H126.072V74.4H135.594V76.74H128.97V84.66ZM149.276 87.216C148.304 87.216 147.398 87.06 146.558 86.748C145.73 86.424 145.01 85.968 144.398 85.38C143.786 84.792 143.306 84.102 142.958 83.31C142.622 82.518 142.454 81.648 142.454 80.7C142.454 79.752 142.622 78.882 142.958 78.09C143.306 77.298 143.786 76.608 144.398 76.02C145.022 75.432 145.748 74.982 146.576 74.67C147.404 74.346 148.31 74.184 149.294 74.184C150.386 74.184 151.37 74.376 152.246 74.76C153.134 75.132 153.878 75.684 154.478 76.416L152.606 78.144C152.174 77.652 151.694 77.286 151.166 77.046C150.638 76.794 150.062 76.668 149.438 76.668C148.85 76.668 148.31 76.764 147.818 76.956C147.326 77.148 146.9 77.424 146.54 77.784C146.18 78.144 145.898 78.57 145.694 79.062C145.502 79.554 145.406 80.1 145.406 80.7C145.406 81.3 145.502 81.846 145.694 82.338C145.898 82.83 146.18 83.256 146.54 83.616C146.9 83.976 147.326 84.252 147.818 84.444C148.31 84.636 148.85 84.732 149.438 84.732C150.062 84.732 150.638 84.612 151.166 84.372C151.694 84.12 152.174 83.742 152.606 83.238L154.478 84.966C153.878 85.698 153.134 86.256 152.246 86.64C151.37 87.024 150.38 87.216 149.276 87.216ZM165.087 74.4H168.003V87H165.087V74.4ZM159.363 87H156.447V74.4H159.363V87ZM165.303 81.834H159.147V79.368H165.303V81.834ZM170.984 87V74.4H173.9V87H170.984ZM176.89 87V74.4H179.806V84.624H186.124V87H176.89ZM187.754 87V74.4H193.478C194.846 74.4 196.052 74.664 197.096 75.192C198.14 75.708 198.956 76.434 199.544 77.37C200.132 78.306 200.426 79.416 200.426 80.7C200.426 81.972 200.132 83.082 199.544 84.03C198.956 84.966 198.14 85.698 197.096 86.226C196.052 86.742 194.846 87 193.478 87H187.754ZM190.67 84.606H193.334C194.174 84.606 194.9 84.45 195.512 84.138C196.136 83.814 196.616 83.358 196.952 82.77C197.3 82.182 197.474 81.492 197.474 80.7C197.474 79.896 197.3 79.206 196.952 78.63C196.616 78.042 196.136 77.592 195.512 77.28C194.9 76.956 194.174 76.794 193.334 76.794H190.67V84.606ZM202.625 87V74.4H208.079C209.207 74.4 210.179 74.586 210.995 74.958C211.811 75.318 212.441 75.84 212.885 76.524C213.329 77.208 213.551 78.024 213.551 78.972C213.551 79.908 213.329 80.718 212.885 81.402C212.441 82.074 211.811 82.59 210.995 82.95C210.179 83.31 209.207 83.49 208.079 83.49H204.245L205.541 82.212V87H202.625ZM210.635 87L207.485 82.428H210.599L213.785 87H210.635ZM205.541 82.536L204.245 81.168H207.917C208.817 81.168 209.489 80.976 209.933 80.592C210.377 80.196 210.599 79.656 210.599 78.972C210.599 78.276 210.377 77.736 209.933 77.352C209.489 76.968 208.817 76.776 207.917 76.776H204.245L205.541 75.39V82.536ZM218.543 79.476H224.609V81.744H218.543V79.476ZM218.759 84.66H225.617V87H215.861V74.4H225.383V76.74H218.759V84.66ZM227.937 87V74.4H230.349L237.783 83.472H236.613V74.4H239.493V87H237.099L229.647 77.928H230.817V87H227.937Z" fill="black"/>
</svg>
